<svg width="25" height="25" viewBox="0 0 25 25" fill="none" xmlns="http://www.w3.org/2000/svg">
<path d="M24 12.5C24 14.7745 23.3255 16.9979 22.0619 18.8891C20.7983 20.7802 19.0022 22.2542 16.9009 23.1246C14.7995 23.995 12.4872 24.2228 10.2565 23.779C8.02568 23.3353 5.97658 22.24 4.36828 20.6317C2.75997 19.0234 1.6647 16.9743 1.22097 14.7435C0.777244 12.5128 1.00498 10.2005 1.87539 8.09914C2.7458 5.99779 4.21978 4.20174 6.11095 2.9381C8.00211 1.67446 10.2255 1 12.5 1C14.0102 1 15.5056 1.29746 16.9009 1.87539C18.2961 2.45331 19.5639 3.3004 20.6317 4.36827C21.6996 5.43614 22.5467 6.7039 23.1246 8.09914C23.7025 9.49438 24 10.9898 24 12.5Z" stroke="#B6B6B6" stroke-width="2" stroke-linecap="round" stroke-linejoin="round"/>
<path d="M7.89844 14.7998C8.45641 15.4895 9.15567 16.0516 9.94915 16.4484C10.7426 16.8451 11.6119 17.0672 12.4984 17.0998C13.385 17.0672 14.2542 16.8451 15.0477 16.4484C15.8412 16.0516 16.5405 15.4895 17.0984 14.7998" stroke="#B6B6B6" stroke-width="2" stroke-linecap="round" stroke-linejoin="round"/>
<path d="M9.04688 9.0498H9.05903" stroke="#B6B6B6" stroke-width="2" stroke-linecap="round" stroke-linejoin="round"/>
<path d="M15.9531 9.0498H15.9646" stroke="#B6B6B6" stroke-width="2" stroke-linecap="round" stroke-linejoin="round"/>
</svg>
