<svg width="24" height="24" viewBox="0 0 24 24" fill="none" xmlns="http://www.w3.org/2000/svg">
<path d="M23.2448 0.0523557L0.297607 10.0546C0.206865 10.0984 0.130596 10.1673 0.0778594 10.2532C0.0251227 10.339 -0.00186573 10.4382 0.000100242 10.5389C0.00206622 10.6397 0.0329041 10.7377 0.0889503 10.8215C0.144997 10.9052 0.223896 10.9711 0.316278 11.0113L6.52361 14.5187C6.70283 14.6198 6.90881 14.6632 7.11354 14.6429C7.31828 14.6227 7.51182 14.54 7.66782 14.4058L19.9074 3.85322C19.9883 3.78476 20.1821 3.65317 20.2576 3.72786C20.3332 3.80254 20.2141 3.99458 20.1447 4.07816L9.55527 16.0062C9.41146 16.1675 9.32391 16.3711 9.30579 16.5865C9.28767 16.8018 9.33997 17.0172 9.45481 17.2002L13.5106 23.7084C13.5551 23.7971 13.6236 23.8715 13.7083 23.923C13.793 23.9746 13.8906 24.0013 13.9897 24C14.0889 23.9987 14.1857 23.9695 14.2691 23.9157C14.3524 23.8619 14.419 23.7858 14.461 23.6959L23.9516 0.746735C23.997 0.64827 24.0109 0.538186 23.9914 0.431532C23.9719 0.324877 23.9199 0.226857 23.8425 0.150871C23.7652 0.0748848 23.6663 0.0246408 23.5593 0.00700733C23.4523 -0.0106261 23.3425 0.00521194 23.2448 0.0523557Z" fill="white"/>
</svg>
