<svg width="24" height="24" viewBox="0 0 24 24" fill="none" xmlns="http://www.w3.org/2000/svg">
<path d="M18.364 16.364L12 22.7279L5.63604 16.364C2.12132 12.8492 2.12132 7.15076 5.63604 3.63604C9.15076 0.12132 14.8492 0.12132 18.364 3.63604C21.8787 7.15076 21.8787 12.8492 18.364 16.364ZM12 14C14.2091 14 16 12.2091 16 10C16 7.79086 14.2091 6 12 6C9.79086 6 8 7.79086 8 10C8 12.2091 9.79086 14 12 14ZM12 12C10.8954 12 10 11.1046 10 10C10 8.89543 10.8954 8 12 8C13.1046 8 14 8.89543 14 10C14 11.1046 13.1046 12 12 12Z" fill="#CCCCCC"/>
</svg>
