<svg width="72" height="72" viewBox="0 0 72 72" fill="none" xmlns="http://www.w3.org/2000/svg">
<rect width="72" height="72" rx="15" fill="#008BD3"/>
<path d="M36.0074 51.0038C27.7231 51.0038 21.0073 44.2882 21.0073 36.0038C21.0073 27.7196 27.7231 21.0039 36.0074 21.0039C44.2916 21.0039 51.0074 27.7196 51.0074 36.0038C51.0074 44.2882 44.2916 51.0038 36.0074 51.0038ZM30.7573 39.0038V42.0038H34.5074V45.0038H37.5074V42.0038H39.0074C41.0784 42.0038 42.7574 40.325 42.7574 38.2538C42.7574 36.1828 41.0784 34.5038 39.0074 34.5038H33.0074C32.5931 34.5038 32.2573 34.1681 32.2573 33.7538C32.2573 33.3397 32.5931 33.0038 33.0074 33.0038H41.2574V30.0039H37.5074V27.0039H34.5074V30.0039H33.0074C30.9363 30.0039 29.2573 31.6828 29.2573 33.7538C29.2573 35.825 30.9363 37.5038 33.0074 37.5038H39.0074C39.4215 37.5038 39.7574 37.8397 39.7574 38.2538C39.7574 38.6681 39.4215 39.0038 39.0074 39.0038H30.7573Z" fill="white"/>
</svg>
