<svg width="180" height="180" viewBox="0 0 180 180" fill="none" xmlns="http://www.w3.org/2000/svg">
<circle cx="90" cy="90" r="90" fill="#008BD3" fill-opacity="0.2"/>
<circle cx="90.5" cy="89.5" r="67.5" fill="#008BD3" fill-opacity="0.2"/>
<circle cx="90.5" cy="90.5" r="36.5" fill="white"/>
<path d="M90 45C81.0999 45 72.3996 47.6392 64.9994 52.5839C57.5991 57.5285 51.8314 64.5566 48.4254 72.7792C45.0195 81.0019 44.1283 90.0499 45.8647 98.7791C47.601 107.508 51.8869 115.526 58.1802 121.82C64.4736 128.113 72.4918 132.399 81.221 134.135C89.9501 135.872 98.9981 134.981 107.221 131.575C115.443 128.169 122.471 122.401 127.416 115.001C132.361 107.6 135 98.9002 135 90C135.001 84.0903 133.837 78.2383 131.576 72.7783C129.315 67.3183 126 62.3572 121.822 58.1784C117.643 53.9996 112.682 50.685 107.222 48.4238C101.762 46.1626 95.9097 44.9992 90 45ZM108.129 90.8462L78.4462 108.8C78.299 108.886 78.1316 108.932 77.9611 108.932C77.7906 108.932 77.6231 108.887 77.4757 108.801C77.3283 108.715 77.2063 108.592 77.1222 108.444C77.0381 108.295 76.9949 108.127 76.9969 107.957V72.0431C76.9939 71.8722 77.0365 71.7036 77.1204 71.5547C77.2042 71.4058 77.3263 71.282 77.4741 71.1961C77.6218 71.1102 77.7898 71.0652 77.9606 71.0659C78.1315 71.0666 78.2992 71.1129 78.4462 71.2L108.129 89.1569C108.273 89.2457 108.392 89.3697 108.474 89.5173C108.556 89.6649 108.6 89.831 108.6 90C108.6 90.169 108.556 90.3351 108.474 90.4827C108.392 90.6303 108.273 90.7574 108.129 90.8462Z" fill="#008BD3"/>
</svg>
