<svg width="48" height="48" viewBox="0 0 48 48" fill="none" xmlns="http://www.w3.org/2000/svg">
<path d="M22 35.8762C14.1074 34.892 8 28.1592 8 20C8 11.1634 15.1634 4 24 4C32.8366 4 40 11.1634 40 20C40 28.1592 33.8926 34.892 26 35.8762V40.0232C33.8926 40.2078 40 41.4702 40 43C40 44.6568 32.8366 46 24 46C15.1634 46 8 44.6568 8 43C8 41.4702 14.1074 40.2078 22 40.0232V35.8762ZM24 24C26.2092 24 28 22.2092 28 20C28 17.7909 26.2092 16 24 16C21.7908 16 20 17.7909 20 20C20 22.2092 21.7908 24 24 24Z" fill="#008BD3"/>
</svg>
