<svg width="72" height="72" viewBox="0 0 72 72" fill="none" xmlns="http://www.w3.org/2000/svg">
<rect width="72" height="72" rx="15" fill="#008BD3"/>
<path d="M28.5 19.5V22.5H22.5C21.6716 22.5 21 23.1716 21 24V48C21 48.8284 21.6716 49.5 22.5 49.5H34.1319C32.4851 47.4456 31.5 44.8379 31.5 42C31.5 35.3726 36.8726 30 43.5 30C46.3379 30 48.9456 30.9851 51 32.6319V24C51 23.1716 50.3284 22.5 49.5 22.5H43.5V19.5H40.5V22.5H31.5V19.5H28.5ZM52.5 42C52.5 46.9706 48.4706 51 43.5 51C38.5294 51 34.5 46.9706 34.5 42C34.5 37.0294 38.5294 33 43.5 33C48.4706 33 52.5 37.0294 52.5 42ZM42 36V42.6213L45.4394 46.0606L47.5606 43.9394L45 41.3787V36H42Z" fill="white"/>
</svg>
