<svg width="24" height="24" viewBox="0 0 24 24" fill="none" xmlns="http://www.w3.org/2000/svg">
<path d="M13.9461 2.0946C12.8248 1.13904 11.1756 1.13905 10.0544 2.09459L8.70636 3.24335C8.54619 3.37984 8.34705 3.46232 8.13728 3.47906L6.3718 3.61995C4.90327 3.73714 3.73714 4.90327 3.61995 6.37179L3.47907 8.13727C3.46234 8.34703 3.37983 8.54622 3.24334 8.70638L2.09458 10.0544C1.13904 11.1757 1.13905 12.8248 2.0946 13.946L3.24336 15.2941C3.37983 15.4543 3.46232 15.6534 3.47906 15.8632L3.61997 17.6286C3.73716 19.0971 4.9033 20.2632 6.37184 20.3804L8.13729 20.5214C8.34705 20.5381 8.54615 20.6206 8.70631 20.7571L10.0543 21.9058C11.1756 22.8613 12.8248 22.8614 13.9461 21.9058L15.2941 20.7571C15.4542 20.6206 15.6533 20.5381 15.8631 20.5213L17.6286 20.3804C19.0971 20.2633 20.2632 19.0972 20.3805 17.6286L20.5213 15.8632C20.538 15.6534 20.6206 15.4542 20.757 15.294L21.9058 13.9461C22.8614 12.8248 22.8614 11.1756 21.9058 10.0544L20.757 8.70634C20.6205 8.54617 20.5381 8.34703 20.5214 8.13728L20.3805 6.3718C20.2633 4.90329 19.0971 3.73712 17.6286 3.61994L15.8631 3.47905C15.6533 3.46231 15.4542 3.37984 15.2941 3.24335L13.9461 2.0946ZM14.8284 7.75767L16.2426 9.17189L9.17151 16.243L7.7573 14.8287L14.8284 7.75767ZM10.2322 10.2325C9.64638 10.8183 8.69664 10.8183 8.11085 10.2325C7.52506 9.64679 7.52506 8.69701 8.11085 8.11122C8.69664 7.52543 9.64638 7.52543 10.2322 8.11122C10.818 8.69701 10.818 9.64679 10.2322 10.2325ZM13.7677 15.8894C13.1819 15.3036 13.1819 14.3539 13.7677 13.7681C14.3535 13.1823 15.3032 13.1823 15.889 13.7681C16.4748 14.3539 16.4748 15.3036 15.889 15.8894C15.3032 16.4752 14.3535 16.4752 13.7677 15.8894Z" fill="#008BD3"/>
</svg>
