<svg width="36" height="36" viewBox="0 0 36 36" fill="none" xmlns="http://www.w3.org/2000/svg">
<path d="M27.546 24.546L18 34.0919L8.45406 24.546C3.18198 19.2738 3.18198 10.7261 8.45406 5.45406C13.7261 0.18198 22.2738 0.18198 27.546 5.45406C32.8181 10.7261 32.8181 19.2738 27.546 24.546ZM18 21C21.3137 21 24 18.3137 24 15C24 11.6863 21.3137 9 18 9C14.6863 9 12 11.6863 12 15C12 18.3137 14.6863 21 18 21ZM18 18C16.3431 18 15 16.6569 15 15C15 13.3431 16.3431 12 18 12C19.6569 12 21 13.3431 21 15C21 16.6569 19.6569 18 18 18Z" fill="#008BD3"/>
</svg>
