<svg width="26" height="26" viewBox="0 0 26 26" fill="none" xmlns="http://www.w3.org/2000/svg">
<path d="M11.8624 13.7583L10.3458 12.2416C10.1291 12.0249 9.87631 11.9166 9.58742 11.9166C9.29853 11.9166 9.04575 12.0249 8.82908 12.2416C8.61242 12.4583 8.50409 12.7157 8.50409 13.014C8.50409 13.3123 8.61242 13.5694 8.82908 13.7854L11.1041 16.0874C11.3208 16.3041 11.5735 16.4124 11.8624 16.4124C12.1513 16.4124 12.4041 16.3041 12.6208 16.0874L17.2249 11.4833C17.4416 11.2666 17.5499 11.0095 17.5499 10.7119C17.5499 10.4144 17.4416 10.1569 17.2249 9.93952C17.0083 9.72285 16.7511 9.61452 16.4536 9.61452C16.156 9.61452 15.8986 9.72285 15.6812 9.93952L11.8624 13.7583ZM12.9999 23.7249C12.8735 23.7249 12.7562 23.7159 12.6478 23.6979C12.5395 23.6798 12.4312 23.6527 12.3228 23.6166C9.88534 22.8041 7.94436 21.3012 6.49992 19.1078C5.05547 16.9144 4.33325 14.5534 4.33325 12.0249V6.90619C4.33325 6.4548 4.46434 6.04855 4.7265 5.68743C4.98867 5.32632 5.32703 5.06452 5.74159 4.90202L12.2416 2.46452C12.4944 2.37424 12.7471 2.3291 12.9999 2.3291C13.2527 2.3291 13.5055 2.37424 13.7583 2.46452L20.2583 4.90202C20.6735 5.06452 21.0123 5.32632 21.2744 5.68743C21.5366 6.04855 21.6673 6.4548 21.6666 6.90619V12.0249C21.6666 14.5527 20.9444 16.9137 19.4999 19.1078C18.0555 21.3019 16.1145 22.8048 13.677 23.6166C13.5687 23.6527 13.4603 23.6798 13.352 23.6979C13.2437 23.7159 13.1263 23.7249 12.9999 23.7249Z" fill="white"/>
</svg>
